<svg height="512pt" viewBox="0 -16 512.001 512" width="512pt" xmlns="http://www.w3.org/2000/svg"><path d="m501.898438 418.199219h-491.898438c-5.523438 0-10-4.476563-10-10v-398.199219c0-5.523438 4.476562-10 10-10h491.898438c5.523437 0 10 4.476562 10 10v398.199219c0 5.523437-4.476563 10-10 10zm0 0" fill="#3eb500"/><path d="m282.929688 285.4375h-125.890626c-14.769531 0-26.742187-11.972656-26.742187-26.738281v-198.566407c0-14.769531 11.972656-26.742187 26.742187-26.742187h125.890626c14.769531 0 26.742187 11.972656 26.742187 26.742187v198.566407c0 14.765625-11.972656 26.738281-26.742187 26.738281zm0 0" fill="#f96058"/><path d="m282.210938 33.390625h-6.085938c1.632812 3.515625 2.550781 7.429687 2.550781 11.558594v197.128906c0 15.164063-12.292969 27.460937-27.460937 27.460937h-118.367188c4.363282 9.386719 13.875 15.902344 24.910156 15.902344h124.453126c15.167968 0 27.460937-12.296875 27.460937-27.460937v-197.128907c0-15.167968-12.292969-27.460937-27.460937-27.460937zm0 0" fill="#e94141"/><path d="m282.929688 328.996094h-125.890626c-14.769531 0-26.742187-11.972656-26.742187-26.742188v-198.566406c0-14.769531 11.972656-26.738281 26.742187-26.738281h125.890626c14.769531 0 26.742187 11.972656 26.742187 26.738281v198.566406c0 14.769532-11.972656 26.742188-26.742187 26.742188zm0 0" fill="#ffdc13"/><path d="m282.210938 76.949219h-6.085938c1.632812 3.511719 2.550781 7.425781 2.550781 11.554687v197.128906c0 15.167969-12.292969 27.460938-27.460937 27.460938h-118.367188c4.363282 9.390625 13.875 15.902344 24.910156 15.902344h124.453126c15.167968 0 27.460937-12.292969 27.460937-27.460938v-197.128906c0-15.164062-12.292969-27.457031-27.460937-27.457031zm0 0" fill="#ffa511"/><path d="m238.175781 114.460938c-7.582031.042968-14.144531 3.9375-18.226562 10.277343l-.117188.1875-.121093-.183593c-4.164063-6.25-10.761719-10.105469-18.3125-10.0625-12.535157.074218-23.695313 10.332031-22.550782 25.246093.601563 7.800781 3.988282 13.335938 11.804688 21.878907 6.066406 6.628906 23.269531 20.355468 28.207031 24.261718.785156.617188 1.890625.613282 2.671875-.015625 4.894531-3.957031 21.941406-17.867187 27.953125-24.597656 7.714844-8.632813 11.039063-14.210937 11.542969-22.019531.964844-14.929688-10.316406-25.050782-22.851563-24.972656zm0 0" fill="#f96058"/><path d="m238.175781 114.460938c-.078125 0-.15625.007812-.234375.007812 3.765625 4.324219 5.984375 10.242188 5.53125 17.210938-.503906 7.808593-3.828125 13.382812-11.539062 22.019531-5.191406 5.808593-18.597656 16.964843-25.320313 22.453125 5.152344 4.28125 9.984375 8.125 12.246094 9.914062.785156.617188 1.890625.613282 2.667969-.015625 4.898437-3.957031 21.945312-17.867187 27.957031-24.597656 7.714844-8.632813 11.035156-14.210937 11.542969-22.019531.964844-14.929688-10.316406-25.050782-22.851563-24.972656zm0 0" fill="#e94141"/><path d="m238.175781 219.9375c-7.582031.042969-14.144531 3.9375-18.226562 10.277344l-.117188.1875-.121093-.183594c-4.164063-6.25-10.761719-10.105469-18.3125-10.0625-12.535157.078125-23.695313 10.332031-22.550782 25.246094.601563 7.804687 3.988282 13.339844 11.804688 21.878906 6.066406 6.628906 23.269531 20.355469 28.207031 24.261719.785156.621093 1.890625.613281 2.671875-.015625 4.894531-3.953125 21.941406-17.867188 27.953125-24.597656 7.714844-8.632813 11.039063-14.210938 11.542969-22.019532.964844-14.929687-10.316406-25.046875-22.851563-24.972656zm0 0" fill="#f96058"/><path d="m238.175781 219.9375c-.078125 0-.15625.007812-.234375.007812 3.765625 4.324219 5.984375 10.242188 5.53125 17.210938-.503906 7.808594-3.828125 13.382812-11.539062 22.019531-5.191406 5.808594-18.597656 16.964844-25.320313 22.453125 5.152344 4.28125 9.984375 8.125 12.246094 9.914063.785156.621093 1.890625.613281 2.667969-.015625 4.898437-3.953125 21.945312-17.867188 27.957031-24.597656 7.714844-8.632813 11.035156-14.210938 11.542969-22.019532.964844-14.929687-10.316406-25.046875-22.851563-24.972656zm0 0" fill="#e94141"/><path d="m174.902344 285.4375h-125.890625c-14.769531 0-26.742188-11.972656-26.742188-26.738281v-198.566407c0-14.769531 11.972657-26.742187 26.742188-26.742187h125.890625c14.769531 0 26.742187 11.972656 26.742187 26.742187v198.566407c0 14.765625-11.972656 26.738281-26.742187 26.738281zm0 0" fill="#f96058"/><path d="m174.183594 33.390625h-6.085938c1.632813 3.515625 2.550782 7.429687 2.550782 11.558594v197.128906c0 15.164063-12.292969 27.460937-27.460938 27.460937h-118.367188c4.363282 9.386719 13.875 15.902344 24.910157 15.902344h124.453125c15.167968 0 27.460937-12.296875 27.460937-27.460937v-197.128907c0-15.167968-12.292969-27.460937-27.460937-27.460937zm0 0" fill="#e94141"/><path d="m501.628906 0h-65.886718v384.609375c0 5.671875-4.597657 10.269531-10.269532 10.269531h-425.472656v13.050782c0 5.671874 4.597656 10.269531 10.269531 10.269531h491.359375c5.671875 0 10.269532-4.597657 10.269532-10.269531v-397.660157c0-5.671875-4.597657-10.269531-10.269532-10.269531zm0 0" fill="#398c03"/><path d="m485.257812 480.800781h-125.890624c-14.769532 0-26.742188-11.972656-26.742188-26.738281v-198.566406c0-14.769532 11.972656-26.742188 26.742188-26.742188h125.890624c14.769532 0 26.742188 11.972656 26.742188 26.742188v198.566406c0 14.765625-11.972656 26.738281-26.742188 26.738281zm0 0" fill="#f96058"/><path d="m484.539062 228.753906h-6.085937c1.632813 3.511719 2.550781 7.425782 2.550781 11.558594v197.128906c0 15.164063-12.292968 27.460938-27.460937 27.460938h-118.367188c4.363281 9.386718 13.875 15.898437 24.910157 15.898437h124.453124c15.167969 0 27.460938-12.292969 27.460938-27.457031v-197.128906c0-15.167969-12.296875-27.460938-27.460938-27.460938zm0 0" fill="#e94141"/><g fill="#0064db"><path d="m402.527344 355.777344c-3.035156 0-5.890625-1.855469-7.019532-4.863282-2.210937-5.875-7.21875-9.671874-12.765624-9.671874-5.542969 0-10.550782 3.796874-12.761719 9.671874-1.457031 3.875-5.78125 5.835938-9.65625 4.378907-3.878907-1.457031-5.839844-5.78125-4.382813-9.660157 4.429688-11.78125 14.949219-19.390624 26.800782-19.390624 11.855468 0 22.375 7.609374 26.804687 19.390624 1.457031 3.878907-.503906 8.203126-4.382813 9.660157-.867187.328125-1.757812.484375-2.636718.484375zm0 0"/><path d="m402.527344 376.8125c-3.035156 0-5.890625-1.855469-7.019532-4.863281-2.210937-5.875-7.21875-9.671875-12.765624-9.671875-5.542969 0-10.550782 3.796875-12.761719 9.671875-1.457031 3.878906-5.78125 5.839843-9.65625 4.382812-3.878907-1.460937-5.839844-5.785156-4.382813-9.660156 4.429688-11.78125 14.949219-19.394531 26.800782-19.394531 11.855468 0 22.375 7.609375 26.804687 19.394531 1.457031 3.875-.503906 8.199219-4.382813 9.660156-.867187.324219-1.757812.480469-2.636718.480469zm0 0"/><path d="m377.589844 391.523438c-.878906 0-1.769532-.152344-2.640625-.480469-3.875-1.457031-5.835938-5.78125-4.378907-9.660157 3.691407-9.828124 12.496094-16.175781 22.425782-16.175781 6.699218 0 13.152344 3 17.707031 8.238281 2.71875 3.125 2.390625 7.859376-.734375 10.578126-3.128906 2.71875-7.863281 2.390624-10.582031-.734376-1.730469-1.988281-4-3.082031-6.390625-3.082031-3.621094 0-6.910156 2.535157-8.386719 6.457031-1.128906 3.003907-3.988281 4.859376-7.019531 4.859376zm0 0"/><path d="m481.425781 355.777344c-3.035156 0-5.890625-1.855469-7.023437-4.863282-2.207032-5.875-7.21875-9.671874-12.761719-9.671874s-10.550781 3.796874-12.761719 9.671874c-1.457031 3.875-5.78125 5.835938-9.660156 4.378907-3.875-1.457031-5.835938-5.78125-4.378906-9.660157 4.425781-11.78125 14.949218-19.390624 26.800781-19.390624 11.855469 0 22.375 7.609374 26.804687 19.390624 1.457032 3.878907-.503906 8.203126-4.382812 9.660157-.871094.328125-1.761719.484375-2.636719.484375zm0 0"/><path d="m481.425781 376.8125c-3.035156 0-5.890625-1.855469-7.023437-4.863281-2.207032-5.875-7.21875-9.671875-12.761719-9.671875s-10.550781 3.796875-12.761719 9.671875c-1.457031 3.878906-5.78125 5.839843-9.660156 4.382812-3.875-1.460937-5.835938-5.785156-4.378906-9.660156 4.425781-11.78125 14.949218-19.394531 26.800781-19.394531 11.855469 0 22.375 7.609375 26.804687 19.394531 1.457032 3.875-.503906 8.199219-4.382812 9.660156-.871094.324219-1.761719.480469-2.636719.480469zm0 0"/><path d="m466.796875 391.523438c-3.035156 0-5.890625-1.851563-7.019531-4.859376-1.476563-3.921874-4.765625-6.457031-8.386719-6.457031-2.546875 0-4.417969 1.203125-5.542969 2.214844-3.074218 2.773437-7.816406 2.527344-10.589844-.546875-2.773437-3.078125-2.53125-7.820312.546876-10.59375 4.347656-3.917969 9.882812-6.078125 15.585937-6.078125 9.929687 0 18.730469 6.351563 22.425781 16.179687 1.457032 3.875-.503906 8.199219-4.378906 9.660157-.871094.328125-1.761719.480469-2.640625.480469zm0 0"/></g><path d="m419.582031 320.347656c0 5.042969-4.085937 9.128906-9.128906 9.128906-5.039063 0-9.128906-4.085937-9.128906-9.128906 0-5.039062 4.089843-9.125 9.128906-9.125 5.042969 0 9.128906 4.085938 9.128906 9.125zm0 0" fill="#ffdc13"/><path d="m444.265625 320.347656c0 5.042969-4.085937 9.128906-9.128906 9.128906-5.039063 0-9.128907-4.085937-9.128907-9.128906 0-5.039062 4.089844-9.125 9.128907-9.125 5.042969 0 9.128906 4.085938 9.128906 9.125zm0 0" fill="#ffdc13"/><path d="m453.417969 355.480469c0 18.851562-13.925781 43.382812-31.105469 43.382812s-31.105469-24.53125-31.105469-43.382812c0-18.851563 13.925781-34.136719 31.105469-34.136719s31.105469 15.285156 31.105469 34.136719zm0 0" fill="#0086f4"/><path d="m429.128906 322.179688c4.46875 5.910156 7.15625 13.5 7.15625 21.78125 0 18.851562-13.925781 43.382812-31.105468 43.382812-.941407 0-1.875-.078125-2.796876-.222656 5.398438 6.960937 12.347657 11.742187 19.929688 11.742187 17.179688 0 31.105469-24.53125 31.105469-43.382812 0-16.28125-10.390625-29.890625-24.289063-33.300781zm0 0" fill="#0064db"/><path d="m174.902344 325.832031h-125.890625c-14.769531 0-26.742188-11.972656-26.742188-26.742187v-198.566406c0-14.769532 11.972657-26.742188 26.742188-26.742188h125.890625c14.769531 0 26.742187 11.972656 26.742187 26.742188v198.566406c0 14.769531-11.972656 26.742187-26.742187 26.742187zm0 0" fill="#ffa511"/><path d="m174.183594 73.78125h-6.085938c1.632813 3.515625 2.550782 7.429688 2.550782 11.558594v197.128906c0 15.164062-12.292969 27.460938-27.460938 27.460938h-118.367188c4.363282 9.386718 13.875 15.902343 24.910157 15.902343h124.453125c15.167968 0 27.460937-12.296875 27.460937-27.460937v-197.128906c0-15.167969-12.292969-27.460938-27.460937-27.460938zm0 0" fill="#f48500"/><path d="m174.902344 369.386719h-125.890625c-14.769531 0-26.742188-11.972657-26.742188-26.738281v-198.570313c0-14.769531 11.972657-26.738281 26.742188-26.738281h125.890625c14.769531 0 26.742187 11.972656 26.742187 26.738281v198.566406c0 14.769531-11.972656 26.742188-26.742187 26.742188zm0 0" fill="#ffdc13"/><path d="m116.535156 244.871094c-2.65625-3.867188-8.367187-3.867188-11.023437 0l-12.496094 18.199218c-2.203125 3.507813.320313 8.070313 4.460937 8.070313h27.089844c4.144532 0 6.664063-4.5625 4.464844-8.070313zm0 0" fill="#0064db"/><path d="m129.03125 263.074219-12.496094-18.199219c-2.65625-3.871094-8.367187-3.871094-11.023437 0l-3.0625 4.457031 9.433593 13.742188c2.203126 3.507812-.316406 8.066406-4.460937 8.066406h17.144531c4.144532 0 6.664063-4.558594 4.464844-8.066406zm0 0" fill="#0050c4"/><path d="m103.75 224.519531c0 11.707031-9.492188 21.195313-21.199219 21.195313s-21.195312-9.488282-21.195312-21.195313 9.488281-21.199219 21.195312-21.199219 21.199219 9.492188 21.199219 21.199219zm0 0" fill="#0064db"/><path d="m82.550781 203.320312c-2.488281 0-4.867187.453126-7.089843 1.242188 8.214843 2.917969 14.105468 10.738281 14.105468 19.953125 0 9.21875-5.890625 17.039063-14.105468 19.957031 2.21875.789063 4.601562 1.242188 7.089843 1.242188 11.707031 0 21.199219-9.492188 21.199219-21.199219 0-11.703125-9.492188-21.195313-21.199219-21.195313zm0 0" fill="#0050c4"/><path d="m174.183594 117.339844h-6.085938c1.632813 3.511718 2.550782 7.425781 2.550782 11.558594v197.125c0 15.167968-12.292969 27.460937-27.460938 27.460937h-118.367188c4.363282 9.390625 13.875 15.902344 24.910157 15.902344h124.453125c15.167968 0 27.460937-12.292969 27.460937-27.460938v-197.128906c0-15.164063-12.292969-27.457031-27.460937-27.457031zm0 0" fill="#ffa511"/><path d="m123.324219 214.527344h-4.960938v-10.097656c0-4.140626-3.359375-7.5-7.5-7.5-4.144531 0-7.5 3.359374-7.5 7.5v10.097656h-4.960937c-4.144532 0-7.5 3.355468-7.5 7.5 0 4.140625 3.355468 7.5 7.5 7.5h4.960937v20.226562c0 4.144532 3.355469 7.5 7.5 7.5 4.140625 0 7.5-3.355468 7.5-7.5v-20.226562h4.960938c4.140625 0 7.5-3.359375 7.5-7.5 0-4.144532-3.359375-7.5-7.5-7.5zm0 0" fill="#0050c4"/><path d="m132.058594 186.527344c0 11.707031-9.488282 21.195312-21.195313 21.195312s-21.199219-9.488281-21.199219-21.195312c0-11.707032 9.492188-21.199219 21.199219-21.199219s21.195313 9.492187 21.195313 21.199219zm0 0" fill="#0064db"/><path d="m110.863281 165.328125c-2.492187 0-4.871093.453125-7.09375 1.242187 8.214844 2.921876 14.109375 10.738282 14.109375 19.957032 0 9.214844-5.894531 17.035156-14.109375 19.957031 2.222657.789063 4.601563 1.238281 7.09375 1.238281 11.707031 0 21.195313-9.488281 21.195313-21.195312 0-11.707032-9.488282-21.199219-21.195313-21.199219zm0 0" fill="#0050c4"/><path d="m159.578125 224.519531c0 11.707031-9.488281 21.195313-21.195313 21.195313-11.707031 0-21.199218-9.488282-21.199218-21.195313s9.492187-21.199219 21.199218-21.199219c11.707032 0 21.195313 9.492188 21.195313 21.199219zm0 0" fill="#0064db"/><path d="m138.382812 203.320312c-2.492187 0-4.871093.453126-7.09375 1.242188 8.21875 2.917969 14.109376 10.738281 14.109376 19.953125 0 9.21875-5.890626 17.039063-14.109376 19.957031 2.222657.789063 4.601563 1.242188 7.09375 1.242188 11.707032 0 21.195313-9.492188 21.195313-21.199219 0-11.703125-9.488281-21.195313-21.195313-21.195313zm0 0" fill="#0050c4"/></svg>